<?xml version="1.0" encoding="utf-8"?>
<!-- Generator: Adobe Illustrator 27.5.0, SVG Export Plug-In . SVG Version: 6.00 Build 0)  -->
<svg version="1.1" xmlns="http://www.w3.org/2000/svg" xmlns:xlink="http://www.w3.org/1999/xlink" x="0px" y="0px"
	 viewBox="0 0 750 500" style="enable-background:new 0 0 750 500;" xml:space="preserve">
<g id="BACKGROUND">
	<rect style="fill:#FFFFFF;" width="750" height="500"/>
</g>
<g id="OBJECTS">
	<g>
		<rect x="125.514" y="0.532" style="fill:#00B1D1;" width="124.763" height="62.086"/>
		<rect x="625.206" y="250.198" style="fill:#00B1D1;" width="62.242" height="125.381"/>
		<rect x="500.544" y="375.198" style="fill:#FFBC1D;" width="124.661" height="62.499"/>
		<rect x="500.381" y="125.286" style="fill:#341A65;" width="124.824" height="124.824"/>
		<rect x="-0.206" y="250.478" style="fill:#341A65;" width="250.333" height="125.347"/>
		<rect x="375.176" y="125.168" style="fill:#FF2E60;" width="125.172" height="125.03"/>
		<rect x="125.206" y="125.198" style="fill:#FFBC1D;" width="124.922" height="125.279"/>
		<rect x="313.554" y="125.198" style="fill:#00B1D1;" width="61.893" height="62.386"/>
		<rect x="375.176" y="62.698" style="fill:#00B1D1;" width="62.333" height="62.333"/>
		<rect x="375.634" y="250.12" style="fill:#476ACA;" width="125.077" height="125.668"/>
		<path style="fill:#476ACA;" d="M563.355,250.019v125.28c-34.6,0-62.64-28.05-62.64-62.64
			C500.715,278.059,528.755,250.019,563.355,250.019z"/>
		<g>
			<path style="fill:#FFBC1D;" d="M375.066,0.378h125.28c0,34.6-28.05,62.64-62.64,62.64
				C403.106,63.018,375.066,34.978,375.066,0.378z"/>
			<path style="fill:#FF2E60;" d="M403.553,0.378h68.305c0,18.865-15.293,34.153-34.153,34.153
				C418.841,34.531,403.553,19.243,403.553,0.378z"/>
		</g>
		<path style="fill:#FFBC1D;" d="M375.063,312.941v-62.64h62.986C437.86,284.927,409.734,312.941,375.063,312.941z"/>
		<path style="fill:#00B1D1;" d="M375.08,281.442v-31.141h31.476C406.378,267.536,392.36,281.442,375.08,281.442z"/>
		<polygon style="fill:#341A65;" points="311.874,374.89 312.994,374.89 312.434,375.45 		"/>
		<g>
			<path style="fill:#00B1D1;" d="M500.348,249.457V125.286h124.858C624.829,193.926,569.076,249.457,500.348,249.457z"/>
			<path style="fill:#FFBC1D;" d="M500.381,187.017v-61.731h62.396C562.422,159.451,534.635,187.017,500.381,187.017z"/>
		</g>
		<g>
			<polygon style="fill:#341A65;" points="375.634,313.118 250.344,313.118 312.994,250.478 			"/>
			<polygon style="fill:#476ACA;" points="340.489,313.118 285.489,313.118 312.993,285.621 			"/>
		</g>
		<g>
			
				<rect x="206.053" y="206.183" transform="matrix(0.7071 -0.7071 0.7071 0.7071 -103.7891 250.3846)" style="fill:#00B1D1;" width="88.589" height="88.59"/>
			<polygon style="fill:#FF2E60;" points="250.344,313.118 250.128,250.478 312.994,250.478 			"/>
			<polygon style="fill:#FF2E60;" points="250.356,187.838 250.128,250.478 187.706,250.478 			"/>
		</g>
		<g>
			<rect x="313.473" y="0.532" style="fill:#00B1D1;" width="61.406" height="62.333"/>
			<polygon style="fill:#476ACA;" points="313.473,0.532 374.879,62.865 374.818,0.7 			"/>
		</g>
		<g>
			<polygon style="fill:#341A65;" points="250.344,187.698 187.704,250.338 125.064,187.698 125.234,187.528 250.124,187.528 
				250.124,187.478 			"/>
			<polygon style="fill:#FFFFFF;" points="250.124,187.478 250.124,187.528 125.234,187.528 187.704,125.058 			"/>
			
				<rect x="168.26" y="168.252" transform="matrix(0.7071 -0.7071 0.7071 0.7071 -77.7447 187.7024)" style="fill:#476ACA;" width="38.891" height="38.891"/>
		</g>
		<g>
			<path style="fill:#FFBC1D;" d="M312.994,438.428c34.59,0,62.64-28.05,62.64-62.64h-125.28
				C250.354,410.378,278.394,438.428,312.994,438.428z"/>
			
				<rect x="281.66" y="281.814" transform="matrix(-1.836970e-16 1 -1 -1.836970e-16 657.4484 31.4598)" style="fill:#00B1D1;" width="62.669" height="125.28"/>
			<circle style="fill:#FF2E60;" cx="312.854" cy="375.62" r="35"/>
		</g>
		<path style="fill:#341A65;" d="M500.715,375.788L500.715,375.788c-34.54,0-62.54-28-62.54-62.54v-62.95h62.54V375.788z"/>
		<g>
			<rect x="-0.206" y="375.824" style="fill:#FF2E60;" width="250.333" height="60.947"/>
			<polygon style="fill:#FFFFFF;" points="250.02,375.724 250.02,375.824 0.108,375.824 125.114,250.818 			"/>
			
				<rect x="82.082" y="332.841" transform="matrix(0.7071 -0.7071 0.7071 0.7071 -229.1166 198.5087)" style="fill:#476ACA;" width="85.965" height="85.966"/>
		</g>
		
			<ellipse transform="matrix(0.7071 -0.7071 0.7071 0.7071 -25.1578 502.8589)" style="fill:#341A65;" cx="594.426" cy="281.798" rx="19.787" ry="19.787"/>
		<g>
			<polygon style="fill:#341A65;" points="500.824,437.558 375.533,437.558 438.184,500.198 			"/>
			<path style="fill:#476ACA;" d="M404.026,437.558h68.305c0,18.865-15.293,34.153-34.153,34.153
				C419.314,471.71,404.026,456.422,404.026,437.558z"/>
		</g>
		<g>
			<rect x="375.603" y="375.704" style="fill:#FF2E60;" width="125.151" height="61.854"/>
			
				<ellipse transform="matrix(0.6682 -0.744 0.744 0.6682 -167.9594 437.63)" style="fill:#FFFFFF;" cx="406.632" cy="407.108" rx="19.787" ry="19.787"/>
			
				<ellipse transform="matrix(0.7071 -0.7071 0.7071 0.7071 -150.4427 451.016)" style="fill:#FFFFFF;" cx="469.203" cy="407.108" rx="19.787" ry="19.787"/>
		</g>
		<g>
			<rect x="250.128" y="0.198" style="fill:#FF2E60;" width="63.427" height="187.333"/>
			<g>
				
					<ellipse transform="matrix(0.7071 -0.7071 0.7071 0.7071 60.1116 208.5191)" style="fill:#FFBC1D;" cx="281.761" cy="31.698" rx="19.787" ry="19.787"/>
				
					<ellipse transform="matrix(0.2278 -0.9737 0.9737 0.2278 126.1731 346.8315)" style="fill:#FFBC1D;" cx="281.761" cy="93.865" rx="19.787" ry="19.787"/>
				
					<ellipse transform="matrix(0.7071 -0.7071 0.7071 0.7071 -27.8049 244.9353)" style="fill:#FFBC1D;" cx="281.761" cy="156.031" rx="19.787" ry="19.787"/>
			</g>
		</g>
		<g>
			
				<rect x="61.747" y="374.818" transform="matrix(6.123234e-17 -1 1 6.123234e-17 -375.0237 561.9449)" style="fill:#00B1D1;" width="63.427" height="187.333"/>
			<g>
				
					<ellipse transform="matrix(0.2298 -0.9732 0.9732 0.2298 -432.1692 391.5602)" style="fill:#341A65;" cx="31.294" cy="468.815" rx="19.787" ry="19.787"/>
				
					<ellipse transform="matrix(0.9999 -0.0156 0.0156 0.9999 -7.3216 1.5192)" style="fill:#341A65;" cx="93.461" cy="468.815" rx="19.787" ry="19.787"/>
				
					<ellipse transform="matrix(0.2257 -0.9742 0.9742 0.2257 -336.2155 514.6193)" style="fill:#341A65;" cx="155.627" cy="468.815" rx="19.787" ry="19.787"/>
			</g>
		</g>
		<g>
			
				<rect x="643.203" y="80.991" transform="matrix(0.7071 -0.7071 0.7071 0.7071 112.7716 522.8276)" style="fill:#341A65;" width="88.589" height="88.59"/>
			<polygon style="fill:#FF2E60;" points="687.494,187.926 687.706,125.286 750.144,125.286 			"/>
			<polygon style="fill:#FF2E60;" points="687.506,62.646 687.706,125.286 624.856,125.286 			"/>
		</g>
		<polygon style="fill:#FFBC1D;" points="59.886,436.823 -0.206,375.824 -0.146,436.659 		"/>
		<rect x="187.127" y="436.611" style="fill:#FF2E60;" width="62.979" height="63.587"/>
		<polygon style="fill:#FFBC1D;" points="187.396,436.611 250.128,500.198 250.065,436.782 		"/>
		
			<rect x="393.411" y="143.203" transform="matrix(0.7071 -0.7071 0.7071 0.7071 -4.3809 364.4199)" style="fill:#341A65;" width="88.589" height="88.59"/>
		<g>
			<path style="fill:#FFBC1D;" d="M375.564,125.175c0,0,1.471,29.959-15.607,46.864c-17.078,16.905-46.277,15.411-46.277,15.411
				s-1.51-28.903,15.569-45.809C346.326,124.737,375.564,125.175,375.564,125.175z"/>
			<path style="fill:#FF2E60;" d="M313.677,62.866c0,0-1.471,29.959,15.607,46.864c17.078,16.905,46.277,15.411,46.277,15.411
				s1.51-28.903-15.569-45.809C342.915,62.428,313.677,62.866,313.677,62.866z"/>
			<path style="fill:#FFBC1D;" d="M375.628,125.175c0,0-1.471,29.959,15.607,46.864c17.078,16.905,46.277,15.411,46.277,15.411
				s1.51-28.903-15.569-45.809C404.865,124.736,375.628,125.175,375.628,125.175z"/>
			<path style="fill:#FF2E60;" d="M437.514,62.866c0,0,1.471,29.959-15.607,46.864c-17.078,16.905-46.277,15.411-46.277,15.411
				s-1.51-28.903,15.569-45.809S437.514,62.866,437.514,62.866z"/>
		</g>
		<polygon style="fill:#476ACA;" points="500.348,187.498 437.672,187.159 437.706,250.141 		"/>
		<g>
			<polygon style="fill:#FFFFFF;" points="249.964,187.584 375.447,313.067 375.447,187.584 			"/>
			
				<ellipse transform="matrix(0.7928 -0.6095 0.6095 0.7928 -62.1934 255.3611)" style="fill:#476ACA;" cx="344.501" cy="219.158" rx="19.787" ry="19.787"/>
		</g>
		<g>
			<path style="fill:#00B1D1;" d="M562.674,437.889c0,0,1.471,29.959-15.607,46.864s-46.277,15.411-46.277,15.411
				s-1.51-28.903,15.569-45.809S562.674,437.889,562.674,437.889z"/>
			<path style="fill:#476ACA;" d="M500.787,375.58c0,0-1.471,29.959,15.607,46.864c17.078,16.905,46.277,15.411,46.277,15.411
				s1.51-28.903-15.569-45.809C530.025,375.141,500.787,375.58,500.787,375.58z"/>
			<path style="fill:#00B1D1;" d="M562.737,437.888c0,0-1.471,29.959,15.607,46.864c17.078,16.905,46.277,15.411,46.277,15.411
				s1.51-28.903-15.569-45.809C591.975,437.45,562.737,437.888,562.737,437.888z"/>
			<path style="fill:#476ACA;" d="M624.624,375.579c0,0,1.471,29.959-15.607,46.864c-17.078,16.905-46.277,15.411-46.277,15.411
				s-1.51-28.903,15.569-45.809C595.387,375.141,624.624,375.579,624.624,375.579z"/>
		</g>
		<rect x="563.355" y="313.364" style="fill:#00B1D1;" width="61.935" height="61.935"/>
		<polygon style="fill:#341A65;" points="563.355,313.364 625.29,313.364 625.29,375.299 		"/>
		<g>
			<rect x="687.5" y="437.903" style="fill:#FFBC1D;" width="62.294" height="62.294"/>
			<polygon style="fill:#FF2E60;" points="687.5,437.903 749.794,437.903 749.794,500.198 			"/>
		</g>
		<g>
			
				<rect x="625.206" y="437.903" transform="matrix(6.123234e-17 -1 1 6.123234e-17 187.3023 1125.4034)" style="fill:#476ACA;" width="62.294" height="62.294"/>
			<polygon style="fill:#341A65;" points="625.206,500.198 625.206,437.903 687.5,437.903 			"/>
		</g>
		<g>
			<rect x="687.5" y="250.665" style="fill:#341A65;" width="62.294" height="187.333"/>
			<g>
				
					<ellipse transform="matrix(0.2317 -0.9728 0.9728 0.2317 277.6403 915.8718)" style="fill:#476ACA;" cx="718.647" cy="282.165" rx="19.787" ry="19.787"/>
				
					<ellipse transform="matrix(0.7071 -0.7071 0.7071 0.7071 -32.9923 609.0127)" style="fill:#476ACA;" cx="718.647" cy="344.332" rx="19.787" ry="19.787"/>
				
					<ellipse transform="matrix(0.2317 -0.9728 0.9728 0.2317 156.6915 1011.3948)" style="fill:#476ACA;" cx="718.647" cy="406.498" rx="19.787" ry="19.787"/>
			</g>
		</g>
		<path style="fill:#FF2E60;" d="M687.448,312.452L687.448,312.452c-34.54,0-62.54,28-62.54,62.54v62.95h62.54V312.452z"/>
		<polygon style="fill:#FFBC1D;" points="624.856,125.286 687.494,187.926 687.5,250.665 625.206,250.11 		"/>
		<g>
			<path style="fill:#FF2E60;" d="M687.48,251.011c0,0,1.471,29.959-15.607,46.864s-46.277,15.411-46.277,15.411
				s-1.51-28.903,15.569-45.809C658.242,250.573,687.48,251.011,687.48,251.011z"/>
			<path style="fill:#FF2E60;" d="M749.763,188.451c0,0,1.471,29.959-15.607,46.864c-17.078,16.905-46.278,15.411-46.278,15.411
				s-1.51-28.903,15.569-45.809S749.763,188.451,749.763,188.451z"/>
		</g>
		
			<rect x="-0.206" y="0.198" transform="matrix(-1 -1.224647e-16 1.224647e-16 -1 124.9999 125.3954)" style="fill:#FFBC1D;" width="125.411" height="125"/>
		<g>
			<path style="fill:#341A65;" d="M125.206,63.016v62.161H62.701C62.89,90.816,90.8,63.016,125.206,63.016z"/>
			<path style="fill:#00B1D1;" d="M125.189,94.289v30.903H93.953C94.131,108.089,108.042,94.289,125.189,94.289z"/>
		</g>
		<path style="fill:#476ACA;" d="M-0.206,0.198L-0.206,0.198c34.838,0,63.08,28.242,63.08,63.08v61.92h-63.08V0.198z"/>
		
			<ellipse transform="matrix(0.7071 -0.7071 0.7071 0.7071 5.1042 75.7193)" style="fill:#FF2E60;" cx="93.953" cy="31.698" rx="19.787" ry="19.787"/>
		<g>
			<polygon style="fill:#476ACA;" points="250.497,62.838 187.857,125.478 125.217,62.838 125.387,62.668 250.277,62.668 
				250.277,62.618 			"/>
			<polygon style="fill:#341A65;" points="250.277,62.618 250.277,62.668 125.387,62.668 187.857,0.198 			"/>
			
				<rect x="168.413" y="43.392" transform="matrix(0.7071 -0.7071 0.7071 0.7071 10.589 151.2401)" style="fill:#FFBC1D;" width="38.891" height="38.891"/>
		</g>
		<g>
			<polygon style="fill:#341A65;" points="625.832,125.286 500.348,-0.198 500.348,125.286 			"/>
			
				<ellipse transform="matrix(0.1612 -0.9869 0.9869 0.1612 353.1768 602.9561)" style="fill:#476ACA;" cx="531.295" cy="93.712" rx="19.787" ry="19.787"/>
		</g>
		<g>
			<polygon style="fill:#FF2E60;" points="689.16,0.198 560.552,0.198 624.864,64.493 			"/>
			<polygon style="fill:#00B1D1;" points="624.864,64.493 625.206,125.286 750.206,0.198 689.16,0.198 			"/>
		</g>
		<polygon style="fill:#476ACA;" points="750.206,0.198 687.498,62.644 750.144,125.286 		"/>
		<g>
			
				<ellipse transform="matrix(0.7071 -0.7071 0.7071 0.7071 -249.3169 336.1816)" style="fill:#00B1D1;" cx="281.149" cy="469.043" rx="19.787" ry="19.787"/>
			
				<ellipse transform="matrix(0.7071 -0.7071 0.7071 0.7071 -230.9902 380.4261)" style="fill:#00B1D1;" cx="343.72" cy="469.043" rx="19.787" ry="19.787"/>
		</g>
		<polygon style="fill:#FFBC1D;" points="375.533,437.558 375.634,500.198 438.184,500.198 		"/>
		<polygon style="fill:#00B1D1;" points="500.348,97.531 500.348,152.531 472.852,125.027 		"/>
		<polygon style="fill:#341A65;" points="437.762,125.167 437.762,62.873 500.056,62.873 		"/>
		<g>
			<path style="fill:#476ACA;" d="M125.514,187.838c0,34.59-28.05,62.64-62.64,62.64v-125.28
				C97.464,125.198,125.514,153.238,125.514,187.838z"/>
			<rect x="-0.206" y="125.198" style="fill:#FF2E60;" width="63.08" height="125.28"/>
			<circle style="fill:#341A65;" cx="62.706" cy="187.698" r="35"/>
		</g>
	</g>
</g>
</svg>
